<svg width="24" height="24" viewBox="0 0 24 24" fill="none" xmlns="http://www.w3.org/2000/svg">
<path d="M5.88382 18.1529C5.88382 18.7797 6.40622 19.2913 7.04897 19.2913H8.38096V22.5161C8.38096 23.3331 9.05105 24 9.87431 24C10.7003 24 11.3677 23.3357 11.3677 22.5161V19.2886H13.6925V22.5135C13.6925 23.3304 14.3626 23.9973 15.1858 23.9973C16.0118 23.9973 16.6792 23.3331 16.6792 22.5135V19.2886H18.0112C18.6539 19.2886 19.1763 18.777 19.1763 18.1503V7.56502H5.88382V18.1529ZM15.6508 2.07955L16.8789 0.338553C16.95 0.236772 16.9336 0.100171 16.8378 0.0332095C16.7421 -0.0310734 16.6054 0.00106819 16.5342 0.102849L15.2597 1.91348C14.42 1.58939 13.4846 1.40993 12.5027 1.40993C11.5208 1.40993 10.5854 1.58939 9.74576 1.91348L8.47121 0.105528C8.4001 0.0037466 8.26335 -0.0310732 8.16762 0.0358881C8.07189 0.100171 8.05548 0.234093 8.12659 0.341231L9.35465 2.08223C7.40179 2.97147 6.03425 4.65622 5.85921 6.62488H19.1517C18.9712 4.65354 17.6009 2.96879 15.6508 2.07955ZM9.69653 4.82496C9.55102 4.82496 9.40877 4.7827 9.28778 4.70353C9.16679 4.62436 9.07248 4.51184 9.0168 4.38018C8.96111 4.24853 8.94654 4.10366 8.97493 3.96389C9.00332 3.82413 9.07339 3.69575 9.17629 3.59498C9.27918 3.49422 9.41028 3.4256 9.553 3.3978C9.69572 3.37 9.84365 3.38426 9.97809 3.4388C10.1125 3.49333 10.2274 3.58568 10.3083 3.70417C10.3891 3.82265 10.4323 3.96195 10.4323 4.10446C10.4318 4.29539 10.3541 4.47837 10.2162 4.61338C10.0784 4.7484 9.89151 4.82447 9.69653 4.82496ZM15.3965 4.82496C15.2509 4.82496 15.1087 4.7827 14.9877 4.70353C14.8667 4.62436 14.7724 4.51184 14.7167 4.38018C14.661 4.24853 14.6465 4.10366 14.6748 3.96389C14.7032 3.82413 14.7733 3.69575 14.8762 3.59498C14.9791 3.49422 15.1102 3.4256 15.2529 3.3978C15.3956 3.37 15.5436 3.38426 15.678 3.4388C15.8124 3.49333 15.9274 3.58568 16.0082 3.70417C16.089 3.82265 16.1322 3.96195 16.1322 4.10446C16.1317 4.29539 16.054 4.47837 15.9161 4.61338C15.7783 4.7484 15.5914 4.82447 15.3965 4.82496ZM21.5066 7.52216C20.6806 7.52216 20.0133 8.18642 20.0133 9.00603V14.8022C20.0133 15.6191 20.6834 16.2861 21.5066 16.2861C22.3326 16.2861 23 15.6218 23 14.8022V9.00335C23.0027 8.18374 22.3354 7.52216 21.5066 7.52216ZM3.49336 7.52216C2.66736 7.52216 2 8.18642 2 9.00603V14.8022C2 15.6191 2.6701 16.2861 3.49336 16.2861C4.31935 16.2861 4.98671 15.6218 4.98671 14.8022V9.00335C4.98671 8.18374 4.31662 7.52216 3.49336 7.52216Z" fill="#2DB155"/>
</svg>
