<svg width="24" height="24" viewBox="0 0 24 24" fill="none" xmlns="http://www.w3.org/2000/svg">
<path d="M17.885 12.6832C17.8741 10.7159 18.714 9.2333 20.4102 8.14007C19.4615 6.69782 18.0263 5.90458 16.1345 5.7517C14.3432 5.60171 12.3834 6.85935 11.6658 6.85935C10.9074 6.85935 9.17325 5.80362 7.80873 5.80362C4.9927 5.84977 2 8.18622 2 12.9399C2 14.3446 2.24192 15.7955 2.72575 17.2897C3.37268 19.2569 5.70486 24.0769 8.13762 23.9991C9.40973 23.9673 10.3094 23.0414 11.9648 23.0414C13.5712 23.0414 14.403 23.9991 15.8219 23.9991C18.2764 23.9616 20.3857 19.58 21 17.607C17.7083 15.96 17.885 12.7841 17.885 12.6832ZM15.0282 3.88543C16.4063 2.14895 16.2813 0.568247 16.2405 0C15.0227 0.0749971 13.6147 0.879774 12.8129 1.86916C11.9295 2.93066 11.4103 4.2431 11.5217 5.72285C12.8373 5.82958 14.0388 5.11134 15.0282 3.88543Z" fill="black"/>
</svg>
