<svg width="20" height="20" viewBox="0 0 20 20" fill="none" xmlns="http://www.w3.org/2000/svg">
<g clip-path="url(#clip0_166_2080)">
<path d="M6.409 0C2.61581 1.72409 1.23657 0.344849 1.23657 0.344849C1.23657 1.39557 3.43613 4.64523 4.48486 6.1348C4.8262 5.43289 5.37827 4.85535 6.06415 4.48273C6.37299 4.29352 6.63712 4.03961 6.83823 3.73825C6.59927 2.28134 6.409 0 6.409 0Z" fill="#5DC382"/>
<path d="M2.37442 2.92004C1.38855 2.48959 0.546875 2.06891 0.546875 2.06891C0.577087 2.65744 0.693207 3.23834 0.891724 3.793C1.13312 4.521 3.08273 5.93106 4.21722 6.703C4.25522 6.65021 4.29611 6.5997 4.3399 6.55164C4.37668 6.40897 4.4252 6.2695 4.48486 6.13477C3.93616 5.3555 3.07449 4.09543 2.37442 2.92004Z" fill="#23B972"/>
<path d="M2.08478 5.11829C2.32907 5.92502 2.50668 6.75037 2.61578 7.58624C3.00061 7.59021 3.38422 7.62912 3.76202 7.70251C3.84915 7.34332 4.00342 7.00412 4.21689 6.70245C3.60989 6.2897 2.77173 5.69415 2.08478 5.11829Z" fill="#5D9069"/>
<path d="M16.409 8.96543C15.5238 8.82337 14.6201 8.84595 13.7431 9.03211L13.6504 9.31028C12.8891 9.95206 12.1799 10.6529 11.5289 11.4062C13.3548 11.7016 16.772 14.4827 17.0985 14.4827H18.1331C18.1331 13.4483 19.5123 9.31028 19.5123 9.31028C18.4697 9.28754 17.4312 9.17219 16.409 8.96543Z" fill="#5DC382"/>
<path d="M17.0541 14.4682C16.5669 14.3162 13.3017 11.6931 11.5289 11.4062L11.5448 11.3893C11.3199 11.653 11.045 11.8696 10.7362 12.0268L13.9952 17.2413C13.9952 17.2413 17.0985 16.5516 17.7882 15.5172L17.0541 14.4682Z" fill="#23B972"/>
<path d="M10.8227 11.9896C10.7918 12.0035 10.7641 12.0172 10.7365 12.0276L10.8848 12.2621L11.8744 13.8447L11.5814 14.1379L9.85716 15.5173L9.75721 15.7207C9.58357 16.0638 9.43724 16.4201 9.31929 16.7862C9.20484 17.1264 9.06416 17.4574 8.8986 17.7759L7.97789 19.6173C7.86146 19.8515 7.62236 19.9998 7.36067 20H2.1089C1.86064 19.9994 1.63191 19.8655 1.50984 19.6493C1.38777 19.4331 1.39143 19.1679 1.5193 18.9552L3.9192 14.9518C4.8361 13.4111 4.88188 11.5034 4.0399 9.92063C3.80232 9.52726 3.66835 9.08003 3.65034 8.62074C3.61448 7.86924 3.86045 7.13148 4.33989 6.55164C4.68473 5.1724 6.06413 4.48271 6.06413 4.48271C6.45201 4.23017 6.77656 3.89143 7.01231 3.49302C7.08235 3.38392 7.18489 3.29939 7.30543 3.25163C7.56727 3.13337 7.87504 3.18968 8.07783 3.39308L8.13993 3.45518L8.82276 3.90684C9.03822 4.05225 9.16731 4.29517 9.16761 4.55518V4.82755L9.19172 4.80345C9.38353 4.61149 9.6768 4.56419 9.91926 4.68626L10.5433 4.99998C10.7573 5.10542 10.8925 5.32362 10.8917 5.56211V5.8621L11.4641 6.1482C11.927 6.37937 12.1492 6.91618 11.9848 7.4069L11.9261 7.58619L12.3538 7.72764C12.7423 7.8581 13.0633 8.13703 13.2469 8.5034L13.6503 9.31028C12.8883 9.95115 12.1791 10.6521 11.5297 11.4068C11.3232 11.634 11.085 11.8303 10.8227 11.9896Z" fill="#FEDEBB"/>
<path d="M10.8848 12.2621C10.8699 12.352 10.8188 12.4318 10.7434 12.4827C10.6858 12.5232 10.6172 12.5448 10.5468 12.5448C10.4342 12.5439 10.3288 12.4887 10.2641 12.3965C9.19171 10.8621 6.53653 8.20005 6.50891 8.17579C6.40393 8.06989 6.3789 7.90861 6.44681 7.77586C6.59497 7.43498 6.59497 7.04786 6.44681 6.70683C6.36899 6.55119 6.41919 6.36198 6.56415 6.26554C8.02273 5.28959 7.76761 4.21034 7.30542 3.25163C7.56726 3.13337 7.87503 3.18968 8.07782 3.39308L8.13992 3.45518C8.45715 4.32752 8.5986 5.60346 7.16748 6.68272C7.28024 7.06464 7.27795 7.47114 7.16061 7.85169C7.7641 8.46204 9.85379 10.6138 10.8227 11.9896C10.8261 11.9931 10.8261 11.9966 10.8296 11.9999C10.8825 12.0764 10.9024 12.1708 10.8848 12.2621Z" fill="#F5A585"/>
<path d="M7.44336 8.62074C7.25293 8.62074 7.09851 8.46632 7.09851 8.27589C7.09851 7.16276 8.70374 4.8834 8.88684 4.62721C8.99747 4.47218 9.21292 4.43617 9.36795 4.54695C9.52283 4.65757 9.55884 4.87287 9.44821 5.0279C8.80643 5.92695 7.78821 7.60343 7.78821 8.27589C7.78821 8.46632 7.63379 8.62074 7.44336 8.62074Z" fill="#F5A585"/>
<path d="M8.47795 9.65512C8.31773 9.65543 8.17857 9.54541 8.14165 9.38962C8.10487 9.23383 8.1801 9.07315 8.32338 9.00174C8.62169 8.85266 9.16246 7.92645 9.5572 7.25003C9.86131 6.66867 10.2268 6.12164 10.6476 5.61826C10.7829 5.48764 10.9979 5.48947 11.131 5.62238C11.2641 5.75543 11.2659 5.97058 11.1351 6.10578C10.7601 6.5701 10.4309 7.06983 10.1528 7.59793C9.50654 8.70511 9.08143 9.39374 8.63176 9.61896C8.584 9.64276 8.53135 9.65512 8.47795 9.65512Z" fill="#F5A585"/>
<path d="M9.85718 11.3792C9.66675 11.3792 9.51233 11.225 9.51233 11.0345C9.51233 10.2759 10.1834 8.84138 11.6824 7.34236C11.8176 7.21174 12.0328 7.21358 12.1658 7.34663C12.2987 7.47954 12.3007 7.69468 12.17 7.83003C10.8917 9.10826 10.202 10.4352 10.202 11.0345C10.202 11.225 10.0476 11.3792 9.85718 11.3792Z" fill="#F5A585"/>
<path d="M10.5469 12.4138C10.3564 12.4138 10.202 12.2594 10.202 12.0689C10.202 11.8785 10.3564 11.7241 10.5469 11.7241C10.7803 11.7241 11.3293 11.1252 11.7703 10.6435C12.2775 10.0569 12.8375 9.51843 13.4435 9.03442C13.542 8.96057 13.6725 8.94485 13.7857 8.99322C13.8991 9.0416 13.978 9.14673 13.9926 9.2691C14.0074 9.39148 13.9558 9.51233 13.8573 9.58618C13.286 10.0452 12.7577 10.555 12.2789 11.1096C11.5851 11.8666 11.0838 12.4138 10.5469 12.4138Z" fill="#F5A585"/>
<path d="M8.47792 15.1724C8.34654 15.1731 8.2263 15.0991 8.16756 14.9816C7.56407 13.7748 6.00966 13.4445 5.99516 13.4413C5.81328 13.3995 5.69777 13.2203 5.73454 13.0374C5.77132 12.8544 5.9471 12.7339 6.13097 12.7655C6.20817 12.7807 8.02748 13.1607 8.78615 14.6734C8.83955 14.7802 8.83391 14.9072 8.77104 15.0088C8.70833 15.1104 8.5974 15.1724 8.47792 15.1724Z" fill="#F5A585"/>
</g>
<defs>
<clipPath id="clip0_166_2080">
<rect width="20" height="20" fill="white"/>
</clipPath>
</defs>
</svg>
