<svg width="20" height="20" viewBox="0 0 20 20" fill="none" xmlns="http://www.w3.org/2000/svg">
<g clip-path="url(#clip0_166_2061)">
<path d="M11.0345 5.51727V19.3103C11.0333 19.6907 10.7253 19.9989 10.3448 20H0.689697C0.309296 19.9989 0.00106812 19.6907 0 19.3103V5.51727C0 8.56552 11.0345 8.56552 11.0345 5.51727Z" fill="#BE9379"/>
<path d="M11.0345 5.51727C11.0345 8.5643 8.5643 11.0345 5.51727 11.0345C2.47009 11.0345 0 8.5643 0 5.51727C0 2.47009 2.47009 0 5.51727 0C8.5643 0 11.0345 2.47009 11.0345 5.51727Z" fill="#23B972"/>
<path d="M9.65512 5.51724C9.65512 7.80255 7.80255 9.65512 5.51724 9.65512C3.23193 9.65512 1.37921 7.80255 1.37921 5.51724C1.37921 3.23193 3.23193 1.37921 5.51724 1.37921C7.80255 1.37921 9.65512 3.23193 9.65512 5.51724Z" fill="#5DC382"/>
<path d="M5.51727 7.93103C4.39651 7.93103 3.96866 7.55963 3.8942 7.48517C3.76343 7.34982 3.76526 7.13483 3.89832 7.00177C4.03137 6.86871 4.24637 6.86688 4.38171 6.9975C4.72595 7.19403 5.12268 7.27917 5.51727 7.24133C6.17447 7.24133 6.55167 6.99002 6.55167 6.55164C6.55167 6.06335 6.32202 5.96555 5.47455 5.85934C4.80515 5.77588 3.79303 5.64923 3.79303 4.4827C3.79303 3.58624 4.6814 3.10345 5.51727 3.10345C6.74133 3.10345 7.18033 3.87555 7.19864 3.9082C7.28668 4.07376 7.22641 4.2793 7.06284 4.371C6.89941 4.46255 6.6925 4.40686 6.59729 4.24542C6.3385 3.91965 5.93094 3.7489 5.51727 3.793C5.08759 3.793 4.48273 4.00693 4.48273 4.4827C4.48273 4.97098 4.71237 5.06894 5.56 5.17514C6.22925 5.25861 7.24136 5.3851 7.24136 6.55164C7.24136 7.18823 6.7897 7.93103 5.51727 7.93103Z" fill="#5D9069"/>
<path d="M5.51727 8.62073C5.32684 8.62073 5.17242 8.46631 5.17242 8.27588V7.58618C5.17242 7.39575 5.32684 7.24133 5.51727 7.24133C5.7077 7.24133 5.86212 7.39575 5.86212 7.58618V8.27588C5.86212 8.46631 5.7077 8.62073 5.51727 8.62073Z" fill="#5D9069"/>
<path d="M5.51727 3.793C5.32684 3.793 5.17242 3.63873 5.17242 3.4483V2.75861C5.17242 2.56818 5.32684 2.41376 5.51727 2.41376C5.7077 2.41376 5.86212 2.56818 5.86212 2.75861V3.4483C5.86212 3.63873 5.7077 3.793 5.51727 3.793Z" fill="#5D9069"/>
<path d="M5.51724 18.9655C4.18408 18.9655 3.10345 17.8848 3.10345 16.5517C3.10345 15.2187 4.18408 14.1379 5.51724 14.1379C6.85025 14.1379 7.93103 15.2187 7.93103 16.5517C7.92935 17.8841 6.84964 18.9638 5.51724 18.9655ZM5.51724 14.8276C4.56494 14.8276 3.793 15.5995 3.793 16.5517C3.793 17.504 4.56494 18.2759 5.51724 18.2759C6.46939 18.2759 7.24133 17.504 7.24133 16.5517C7.24026 15.6 6.46893 14.8288 5.51724 14.8276Z" fill="#EBECED"/>
<path d="M0 16.207H11.0345V16.8965H0V16.207Z" fill="#EBECED"/>
<path d="M19.969 16.0242V16.0275C19.9515 16.1913 19.9239 16.3536 19.8862 16.5138C19.5035 18.1914 18.1944 19.5018 16.5172 19.8862C16.357 19.9239 16.1946 19.9515 16.031 19.969C15.2516 20.0601 14.4621 19.9448 13.7415 19.6346C13.5109 19.5352 13.2895 19.4164 13.0794 19.2793H13.0759C12.8134 19.1074 12.5696 18.9085 12.3483 18.6862C11.3805 17.7219 10.9078 16.3674 11.0655 15.0104V15.0069C11.0831 14.8433 11.1107 14.6809 11.1482 14.5207C11.5309 12.8432 12.8401 11.5328 14.5172 11.1482C14.6774 11.1107 14.8398 11.0831 15.0035 11.0655C16.6101 10.8833 18.1911 11.577 19.1449 12.8827V12.8862C19.2946 13.0904 19.4261 13.3074 19.538 13.5346C19.9185 14.3056 20.0682 15.17 19.969 16.0242Z" fill="#F59F57"/>
<path d="M19.5379 13.5345C19.452 13.6096 19.3342 13.6368 19.2241 13.6069C18.0378 13.3034 16.7793 13.4924 15.7345 14.131C15.5383 14.2525 15.3517 14.3886 15.1759 14.5379C15.0862 14.6138 14.9965 14.6965 14.9138 14.7793C14.7859 14.9074 14.6661 15.0433 14.5552 15.1861C14.4119 15.366 14.2839 15.5575 14.1723 15.7587C13.564 16.842 13.4317 18.1291 13.8069 19.3138C13.8405 19.4249 13.8157 19.5454 13.7414 19.6345C13.5109 19.5352 13.2895 19.4163 13.0794 19.2793H13.0758C12.7366 17.9863 12.9109 16.6122 13.562 15.4448C13.6722 15.2394 13.7991 15.0433 13.9413 14.8585C14.089 14.6582 14.2515 14.4691 14.4276 14.293C14.5611 14.1606 14.7015 14.035 14.8483 13.9172C15.0299 13.7695 15.2223 13.6358 15.4242 13.5173C16.5413 12.8476 17.8689 12.6213 19.1449 12.8827V12.8862C19.2946 13.0903 19.4261 13.3073 19.5379 13.5345Z" fill="#445C71"/>
<path d="M19.969 16.0242V16.0276C19.9515 16.1913 19.9239 16.3536 19.8862 16.5139C19.8389 16.5491 19.7829 16.5705 19.7241 16.576C19.5413 16.5932 19.3552 16.6034 19.1759 16.6034C17.9063 16.6309 16.678 16.1521 15.762 15.2724C15.5405 15.0496 15.3439 14.8033 15.1759 14.538C15.0505 14.3401 14.9409 14.1326 14.8483 13.9173C14.498 13.0959 14.3639 12.1984 14.4586 11.3103C14.465 11.2525 14.4852 11.1969 14.5172 11.1483C14.6774 11.1107 14.8398 11.0831 15.0035 11.0656C15.1021 11.1368 15.1558 11.2548 15.1448 11.3759C15.0693 12.1018 15.1649 12.8351 15.4242 13.5173C15.5102 13.7302 15.614 13.9356 15.7346 14.131C15.8791 14.3691 16.0516 14.5891 16.2483 14.7863C17.1643 15.643 18.4143 16.0475 19.6587 15.8896C19.7789 15.8739 19.8982 15.9256 19.969 16.0242Z" fill="#445C71"/>
<path d="M16.576 19.7241C16.5689 19.782 16.549 19.8373 16.5172 19.8862C16.357 19.9239 16.1946 19.9515 16.0311 19.969C15.9325 19.8978 15.8788 19.7798 15.8896 19.6587C16.0475 18.4143 15.643 17.1643 14.7863 16.2483C14.6006 16.0626 14.3947 15.8984 14.1724 15.7587C13.9786 15.6365 13.7743 15.5313 13.562 15.4448C12.8687 15.1682 12.1183 15.0652 11.3759 15.1448C11.2555 15.1607 11.1364 15.109 11.0656 15.0104V15.0069C11.0831 14.8433 11.1107 14.6809 11.1483 14.5207C11.1956 14.4855 11.2517 14.464 11.3103 14.4586C12.2072 14.364 13.1133 14.5018 13.9414 14.8586C14.1541 14.9519 14.3593 15.0615 14.5552 15.1862C14.8143 15.3517 15.0548 15.5449 15.2724 15.762C16.2773 16.8214 16.7556 18.275 16.576 19.7241Z" fill="#445C71"/>
<path d="M18.6207 0L19.1162 0.70694L20 0.922089L19.4224 1.5741L19.4731 2.41379L18.6207 2.10999L17.7682 2.41379L17.8189 1.5741L17.2413 0.922089L18.1251 0.70694L18.6207 0Z" fill="#F4CD1E"/>
<path d="M14.8276 5.4762L15.3231 6.18314L16.207 6.39828L15.6293 7.05029L15.68 7.88998L14.8276 7.58618L13.9753 7.88998L14.0259 7.05029L13.4484 6.39828L14.3322 6.18314L14.8276 5.4762Z" fill="#F4CD1E"/>
</g>
<defs>
<clipPath id="clip0_166_2061">
<rect width="20" height="20" fill="white"/>
</clipPath>
</defs>
</svg>
