<svg width="20" height="20" viewBox="0 0 20 20" fill="none" xmlns="http://www.w3.org/2000/svg">
<g clip-path="url(#clip0_166_2097)">
<path d="M14.1379 3.79303H18.6208C19.0016 3.79303 19.3103 4.10187 19.3103 4.48273V16.8965H0.689697V4.48273C0.695038 4.17969 0.864105 3.90335 1.13144 3.76068L5.86212 3.79303H14.1379Z" fill="#A5B4B4"/>
<path d="M17.931 5.51727V16.8965H2.06891V5.51727C2.06891 5.32684 2.22333 5.17242 2.41376 5.17242H17.5862C17.7766 5.17242 17.931 5.32684 17.931 5.51727Z" fill="#A0C7E7"/>
<path d="M17.931 5.51727V10.2449C10.393 9.59656 5.21039 11.3483 2.06891 13.0655V5.51727C2.06891 5.32684 2.22333 5.17242 2.41376 5.17242H17.5862C17.7766 5.17242 17.931 5.32684 17.931 5.51727Z" fill="#BDDCF3"/>
<path d="M20 17.2413V18.6207C20 19.3824 19.3825 20 18.6208 20H1.37924C0.617523 20 0 19.3824 0 18.6207V17.2413C0 17.0509 0.154419 16.8965 0.344849 16.8965H19.6552C19.8456 16.8965 20 17.0509 20 17.2413Z" fill="#919D9E"/>
<path d="M12.3324 18.2759H7.66751C7.40628 18.2759 7.16748 18.1282 7.0506 17.8944L6.55164 16.8965H13.4483L12.9493 17.8944C12.8325 18.1282 12.5937 18.2759 12.3324 18.2759Z" fill="#668892"/>
<path d="M4.48273 18.2759C4.48273 18.4663 4.32831 18.6207 4.13788 18.6207H0V17.931H4.13788C4.32831 17.931 4.48273 18.0854 4.48273 18.2759Z" fill="#668892"/>
<path d="M5.86212 18.6207H5.51727C5.32684 18.6207 5.17242 18.4663 5.17242 18.2759C5.17242 18.0854 5.32684 17.931 5.51727 17.931H5.86212C6.05255 17.931 6.20697 18.0854 6.20697 18.2759C6.20697 18.4663 6.05255 18.6207 5.86212 18.6207Z" fill="#668892"/>
<path d="M20 17.931V18.6207H15.8621C15.6717 18.6207 15.5173 18.4663 15.5173 18.2759C15.5173 18.0854 15.6717 17.931 15.8621 17.931H20Z" fill="#668892"/>
<path d="M14.4827 18.6207H14.1379C13.9474 18.6207 13.793 18.4663 13.793 18.2759C13.793 18.0854 13.9474 17.931 14.1379 17.931H14.4827C14.6732 17.931 14.8276 18.0854 14.8276 18.2759C14.8276 18.4663 14.6732 18.6207 14.4827 18.6207Z" fill="#668892"/>
<path d="M15.5173 8.62073H4.48273C4.2923 8.62073 4.13788 8.46631 4.13788 8.27588C4.13788 8.08545 4.2923 7.93103 4.48273 7.93103H15.5173C15.7077 7.93103 15.8621 8.08545 15.8621 8.27588C15.8621 8.46631 15.7077 8.62073 15.5173 8.62073Z" fill="#A773B4"/>
<path d="M15.5173 15.5173H4.48273C4.2923 15.5173 4.13788 15.3629 4.13788 15.1724C4.13788 14.982 4.2923 14.8276 4.48273 14.8276H15.5173C15.7077 14.8276 15.8621 14.982 15.8621 15.1724C15.8621 15.3629 15.7077 15.5173 15.5173 15.5173Z" fill="#A773B4"/>
<path d="M16.207 10.3448V13.1035C16.2058 13.4839 15.8977 13.792 15.5173 13.793H12.069V9.65515H15.5173C15.8977 9.65637 16.2058 9.96445 16.207 10.3448Z" fill="#F6DB6D"/>
<path d="M7.93103 9.65515H12.0689V13.793H7.93103V9.65515Z" fill="#F4CD1E"/>
<path d="M7.93106 9.65515V13.793H4.48273C4.10233 13.792 3.79425 13.4839 3.79303 13.1035V10.3448C3.79425 9.96445 4.10233 9.65637 4.48273 9.65515H7.93106Z" fill="#F6DB6D"/>
<path d="M5.86209 12.7586C5.67167 12.7586 5.51725 12.6042 5.51725 12.4138C5.52701 12.1028 5.61231 11.7989 5.76581 11.5283C5.50733 11.5131 5.25388 11.4504 5.01828 11.3431C4.84754 11.2584 4.77796 11.0515 4.86249 10.8809C4.94718 10.7103 5.15424 10.6406 5.32483 10.7251C5.66648 10.876 6.05588 10.876 6.39753 10.7251C6.54859 10.65 6.732 10.6952 6.83072 10.8321C6.9296 10.9689 6.9148 11.1572 6.79578 11.2769C6.4816 11.582 6.27485 11.9811 6.20694 12.4138C6.20694 12.6042 6.05252 12.7586 5.86209 12.7586Z" fill="#CD4F38"/>
<path d="M10 12.7586C9.80958 12.7586 9.65516 12.6042 9.65516 12.4138C9.66493 12.1028 9.75023 11.7989 9.90373 11.5283C9.6454 11.5131 9.39195 11.4504 9.1562 11.3431C8.98561 11.2584 8.91588 11.0515 9.00056 10.8809C9.08525 10.7103 9.29216 10.6406 9.46275 10.7251C9.8044 10.876 10.1938 10.876 10.5356 10.7251C10.6867 10.65 10.8699 10.6952 10.9688 10.8321C11.0675 10.9689 11.0527 11.1572 10.9339 11.2769C10.6195 11.582 10.4129 11.9811 10.3449 12.4138C10.3449 12.6042 10.1904 12.7586 10 12.7586Z" fill="#CD4F38"/>
<path d="M14.1379 12.7586C13.9475 12.7586 13.793 12.6042 13.793 12.4138C13.8028 12.1028 13.8883 11.7989 14.0418 11.5283C13.7833 11.5131 13.5298 11.4504 13.2941 11.3431C13.1235 11.2584 13.0538 11.0515 13.1384 10.8809C13.2231 10.7103 13.43 10.6406 13.6006 10.7251C13.9424 10.876 14.3318 10.876 14.6735 10.7251C14.8245 10.65 15.0079 10.6952 15.1067 10.8321C15.2054 10.9689 15.1907 11.1572 15.0717 11.2769C14.7574 11.582 14.5508 11.9811 14.4827 12.4138C14.4827 12.6042 14.3283 12.7586 14.1379 12.7586Z" fill="#CD4F38"/>
<path d="M10 6.55167C9.80957 6.55167 9.65515 6.3974 9.65515 6.20697V4.13788C9.65515 3.94745 9.80957 3.79303 10 3.79303C10.1904 3.79303 10.3448 3.94745 10.3448 4.13788V6.20697C10.3448 6.3974 10.1904 6.55167 10 6.55167Z" fill="#A773B4"/>
<path d="M10 8.62073C9.80957 8.62073 9.65515 8.46631 9.65515 8.27588V7.58618C9.65515 7.39575 9.80957 7.24133 10 7.24133C10.1904 7.24133 10.3448 7.39575 10.3448 7.58618V8.27588C10.3448 8.46631 10.1904 8.62073 10 8.62073Z" fill="#A773B4"/>
<path d="M12.7586 2.75864C12.7586 4.28223 11.5236 5.51727 9.99997 5.51727C8.47638 5.51727 7.24133 4.28223 7.24133 2.75864C7.24133 1.23505 8.47638 0 9.99997 0C11.5236 0 12.7586 1.23505 12.7586 2.75864Z" fill="#EBECED"/>
<path d="M9.99997 0V1.37924C9.63422 1.38 9.28357 1.52496 9.02417 1.78268L8.04822 0.806885C8.56641 0.29007 9.26816 0 9.99997 0Z" fill="#EBECED"/>
<path d="M11.9518 0.806885L10.9758 1.78268C10.7164 1.52496 10.3658 1.38 10 1.37924V0C10.7318 0 11.4336 0.29007 11.9518 0.806885Z" fill="#23B972"/>
<path d="M12.7587 2.75864H11.3793C11.3787 2.39288 11.2337 2.04224 10.9758 1.78268L11.9518 0.806885C12.4684 1.32492 12.7587 2.02682 12.7587 2.75864Z" fill="#EBECED"/>
<path d="M12.7587 2.75861C12.7587 3.49026 12.4684 4.19217 11.9518 4.71036L10.9758 3.73441C11.2337 3.47501 11.3787 3.12436 11.3793 2.75861H12.7587Z" fill="#23B972"/>
<path d="M11.9518 4.71039C11.4336 5.22705 10.7318 5.51727 10 5.51727V4.13788C10.3658 4.13727 10.7164 3.99231 10.9758 3.73444L11.9518 4.71039Z" fill="#EBECED"/>
<path d="M9.99997 4.13788V5.51727C9.26816 5.51727 8.56641 5.22705 8.04822 4.71039L9.02417 3.73444C9.28357 3.99231 9.63422 4.13727 9.99997 4.13788Z" fill="#23B972"/>
<path d="M9.02417 3.73441L8.04822 4.71036C7.53156 4.19217 7.24133 3.49026 7.24133 2.75861H8.62073C8.62134 3.12436 8.7663 3.47501 9.02417 3.73441Z" fill="#EBECED"/>
<path d="M9.02417 1.78268C8.7663 2.04224 8.62134 2.39288 8.62073 2.75864H7.24133C7.24133 2.02682 7.53156 1.32492 8.04822 0.806885L9.02417 1.78268Z" fill="#23B972"/>
<path d="M11.3793 2.75865C11.3785 3.41569 10.9137 3.98073 10.2692 4.10829C9.62466 4.2357 8.97967 3.89039 8.72866 3.2831C8.47765 2.67595 8.69036 1.97603 9.23678 1.61119C9.7832 1.24635 10.5113 1.31822 10.9758 1.7827C11.2337 2.04225 11.3787 2.3929 11.3793 2.75865Z" fill="#5DC382"/>
</g>
<defs>
<clipPath id="clip0_166_2097">
<rect width="20" height="20" fill="white"/>
</clipPath>
</defs>
</svg>
