<svg width="16" height="16" viewBox="0 0 16 16" fill="none" xmlns="http://www.w3.org/2000/svg">
<path d="M8.61424 5.91955L8.889 5.33398L9.16376 5.91955L9.77789 6.01324L9.33306 6.4692L9.43777 7.11176L8.889 6.80805L8.34022 7.11176L8.44493 6.4692L8.00011 6.01324L8.61424 5.91955Z" fill="white"/>
<path d="M4.6114 9.61131C3.54328 9.20585 3.02594 8.30906 3.20857 7.18082C2.48603 6.29569 2.48603 5.26062 3.20857 4.37472C3.02594 3.24648 3.54329 2.34968 4.6114 1.94424C5.0174 0.876403 5.91455 0.359604 7.04162 0.541595C7.92638 -0.180532 8.96251 -0.180532 9.84728 0.541595C10.9758 0.358883 11.8715 0.876395 12.2775 1.94423C13.3456 2.34968 13.863 3.24647 13.6803 4.37472C14.4029 5.26061 14.4029 6.29568 13.6803 7.18081C13.8629 8.30905 13.3456 9.20585 12.2775 9.6113C11.8715 10.6791 10.9751 11.196 9.84727 11.014C9.40489 11.375 8.92464 11.5556 8.44444 11.5556C7.96425 11.5556 7.48399 11.375 7.04162 11.014C5.91527 11.1952 5.0174 10.6791 4.6114 9.61131ZM8.44674 7.69727L10.5741 8.81533L10.1664 6.44683L11.8867 4.76935L9.51002 4.42345L8.44674 2.26999L7.38345 4.42346L5.00674 4.76936L6.72712 6.44683L6.32094 8.81533L8.44674 7.69727Z" fill="white"/>
<path d="M12.6846 11.5547L14.2222 14.2965L11.9319 14.3481L10.5318 15.9991L8.88889 13.0583C9.26924 12.9846 9.63344 12.8519 9.98954 12.6529C11.0821 12.6824 12.0371 12.2844 12.6846 11.5547Z" fill="white"/>
<path d="M4.19864 11.5547C4.84706 12.2844 5.80348 12.6824 6.89769 12.6529C7.25432 12.8519 7.61907 12.9846 8.00005 13.0583L6.36275 15.9991L4.96055 14.3481L2.66672 14.2965L4.19864 11.5547Z" fill="white"/>
</svg>
