<svg width="20" height="20" viewBox="0 0 20 20" fill="none" xmlns="http://www.w3.org/2000/svg">
<g clip-path="url(#clip0_166_2131)">
<path d="M0 14.4873C0 14.3622 0.067749 14.247 0.177002 14.1861C0.286255 14.1254 0.419922 14.1284 0.526276 14.1942C1.61102 14.8607 2.86499 15.2003 4.13788 15.1724C6.89651 15.1724 6.88934 13.8452 9.99283 13.8452C13.0962 13.8452 13.1035 15.1724 15.8621 15.1724C17.135 15.2003 18.389 14.8607 19.4737 14.1942C19.5801 14.1284 19.7137 14.1254 19.823 14.1861C19.9323 14.247 20 14.3622 20 14.4873V18.4656C20 18.5689 19.9538 18.6668 19.8738 18.7325C19.4759 19.0607 18.138 20 15.8621 20C13.1035 20 13.1035 18.9655 10 18.9655C6.89651 18.9655 6.89651 20 4.13788 20C1.86203 20 0.524139 19.0607 0.12619 18.7325C0.0462341 18.6668 0 18.5689 0 18.4656L0 14.4873Z" fill="#FAEDBD"/>
<path d="M15.4445 6.89651C15.4443 7.13943 15.4274 7.3819 15.3938 7.62238C15.2702 8.55942 14.9014 9.44717 14.3248 10.1959C14.0315 10.5841 13.6858 10.9297 13.2976 11.2231C12.5488 11.7998 11.6611 12.1686 10.7242 12.292C10.4842 12.3256 10.2423 12.3425 10 12.3428H9.94935C9.72337 12.3407 9.49784 12.3238 9.27415 12.292C8.33695 12.1693 7.44904 11.8005 6.70075 11.2231C6.31165 10.9306 5.96589 10.5849 5.67353 10.1959C5.09812 9.44656 4.72993 8.55896 4.60618 7.62238C4.53858 7.14081 4.53858 6.65222 4.60618 6.17065C4.72932 5.24261 5.09064 4.36218 5.65522 3.61511C5.95994 3.21426 6.3176 2.85645 6.71861 2.55173C7.46522 1.98563 8.34672 1.62399 9.27583 1.50269C9.51585 1.46927 9.7577 1.45233 10 1.45203H10.0362C10.267 1.45218 10.4974 1.46912 10.7259 1.50269C11.6628 1.62628 12.5505 1.99509 13.2993 2.57172H13.3031C13.6908 2.86438 14.0353 3.21014 14.3265 3.59894C14.9033 4.34769 15.2719 5.23544 15.3955 6.17249C15.4285 6.41235 15.4448 6.65436 15.4445 6.89651Z" fill="#5DC382"/>
<path d="M12.7299 10.3448C12.5917 10.3448 12.4667 10.2621 12.4126 10.1349C12.3585 10.0076 12.3857 9.86022 12.4817 9.76073C12.9349 9.29076 13.2457 8.70223 13.3783 8.06304C13.417 7.87657 13.5997 7.75694 13.7862 7.79585C13.9726 7.83476 14.0922 8.01741 14.0535 8.20372C13.8946 8.96971 13.5223 9.67497 12.9796 10.2383C12.9144 10.3064 12.8242 10.345 12.7299 10.3448Z" fill="#8ED7AE"/>
<path d="M8.27593 3.51727C8.11663 3.51727 7.97808 3.40817 7.94069 3.2533C7.90331 3.09842 7.97686 2.93805 8.11861 2.86542C8.7015 2.56879 9.34603 2.41406 10 2.41376C10.1904 2.41376 10.3449 2.56818 10.3449 2.75861C10.3449 2.94904 10.1904 3.10345 10 3.10345C9.45513 3.10178 8.91771 3.23071 8.43279 3.47928C8.38427 3.50415 8.3304 3.51712 8.27593 3.51727Z" fill="#8ED7AE"/>
<path d="M6.46547 5.17244C6.42259 5.17229 6.38002 5.1642 6.34004 5.14863C6.25444 5.11537 6.18562 5.04945 6.14885 4.96522C6.11208 4.88115 6.1104 4.78578 6.14412 4.70033C6.24712 4.43696 6.37697 4.18474 6.53169 3.94792C6.63576 3.78847 6.84953 3.74345 7.00899 3.84767C7.16844 3.95173 7.21346 4.16536 7.10939 4.32481C6.98061 4.52211 6.87258 4.73207 6.78697 4.95134C6.7357 5.08439 6.60799 5.17229 6.46547 5.17244Z" fill="#8ED7AE"/>
<path d="M10 9.44302C9.43405 9.42502 8.88519 9.24542 8.41797 8.9259C8.26385 8.8139 8.22967 8.59814 8.34167 8.44418C8.45367 8.29007 8.66943 8.25589 8.82339 8.36789C9.17282 8.60196 9.57992 8.73532 10 8.75348C10.5824 8.75348 11.0345 8.4538 11.0345 8.19623C11.0345 7.62967 10.7365 7.53064 9.94797 7.40964C9.28207 7.30786 8.27591 7.15375 8.27591 5.94174C8.27591 5.10724 9.18442 4.52588 10 4.52588C11.2231 4.52588 11.6624 5.29034 11.6808 5.323C11.7691 5.48825 11.7096 5.69363 11.5466 5.78595C11.3837 5.87827 11.1768 5.82349 11.0806 5.66266C10.82 5.33948 10.4129 5.17102 10 5.21542C9.5314 5.21542 8.96545 5.53922 8.96545 5.94174C8.96545 6.5083 9.26346 6.60718 10.052 6.72818C10.7179 6.82996 11.7241 6.98407 11.7241 8.19623C11.7241 8.88379 10.9506 9.44302 10 9.44302Z" fill="#639085"/>
<path d="M10 10.3448C9.80957 10.3448 9.65515 10.1904 9.65515 10V9.26727C9.65515 9.07684 9.80957 8.92242 10 8.92242C10.1904 8.92242 10.3448 9.07684 10.3448 9.26727V10C10.3448 10.1904 10.1904 10.3448 10 10.3448Z" fill="#639085"/>
<path d="M10 5.21545C9.80957 5.21545 9.65515 5.06119 9.65515 4.87076V4.13788C9.65515 3.94745 9.80957 3.79303 10 3.79303C10.1904 3.79303 10.3448 3.94745 10.3448 4.13788V4.87076C10.3448 5.06119 10.1904 5.21545 10 5.21545Z" fill="#639085"/>
<path d="M14.3303 1.539L13.3031 2.57004H13.2993C12.5499 1.99371 11.6615 1.62552 10.7242 1.50269V0.0506592C11.0919 0.0872803 11.4561 0.154114 11.813 0.250397H11.8169L11.9255 0.283051C11.9548 0.290375 11.9838 0.301361 12.0093 0.308685C12.0744 0.330353 12.1362 0.35202 12.1979 0.370331C12.3866 0.435486 12.5717 0.50827 12.7534 0.584412C12.8003 0.606232 12.8514 0.627899 12.8986 0.649719C12.9166 0.656891 12.9311 0.664062 12.9456 0.671387V0.675201C12.98 0.685883 13.0038 0.700684 13.0327 0.709686L13.0365 0.713501C13.0537 0.716858 13.0698 0.724182 13.0835 0.735168C13.1306 0.756836 13.1779 0.782471 13.2214 0.807648C13.2941 0.844116 13.363 0.88028 13.432 0.92041C13.4456 0.924683 13.4581 0.932159 13.4683 0.942078C13.5155 0.96756 13.5628 0.996552 13.6099 1.02554L13.6424 1.04721C13.667 1.05911 13.69 1.07376 13.7114 1.0907C13.725 1.09528 13.7375 1.10275 13.7479 1.11282C13.7585 1.12 13.773 1.12717 13.7823 1.13449C13.7877 1.14029 13.7938 1.14517 13.8007 1.14899C13.808 1.15616 13.8187 1.15967 13.8258 1.16684C13.8297 1.16684 13.8297 1.16684 13.8332 1.17065C13.8431 1.1792 13.8541 1.18652 13.8658 1.19247L13.8731 1.19965C13.8828 1.20224 13.8914 1.20728 13.8986 1.21414C13.9021 1.21414 13.9021 1.21796 13.9021 1.21796C13.903 1.2178 13.904 1.21811 13.9047 1.21887C13.9055 1.21948 13.9058 1.2204 13.9058 1.22131C13.9247 1.23245 13.9429 1.24466 13.9604 1.25793C13.9893 1.27579 14.0182 1.29761 14.0472 1.31958C14.0663 1.33148 14.0846 1.34476 14.1017 1.35925L14.1055 1.36307C14.1289 1.37863 14.1512 1.39557 14.1724 1.41373H14.1759C14.1882 1.4209 14.1997 1.42944 14.2104 1.4389C14.2223 1.4476 14.2331 1.45752 14.2432 1.4682C14.2645 1.48285 14.2851 1.49841 14.3048 1.5152H14.3083C14.3149 1.5239 14.3222 1.53183 14.3303 1.539Z" fill="#23B972"/>
<path d="M9.28043 0.0396729V1.49628C8.3559 1.61728 7.47882 1.97723 6.73587 2.54074L5.69141 1.53244C5.72375 1.50345 5.76038 1.47446 5.79486 1.44592C5.82935 1.41724 5.87421 1.38062 5.91388 1.35178C5.92532 1.34247 5.93738 1.33408 5.95004 1.3266C6.02237 1.27213 6.09836 1.21796 6.17801 1.1673C6.19144 1.15646 6.20593 1.147 6.22104 1.13861C6.22104 1.1348 6.22104 1.1348 6.22485 1.1348C6.26865 1.1026 6.31473 1.07376 6.36279 1.04828C6.43604 0.998077 6.51202 0.952148 6.5903 0.910339C6.63577 0.881042 6.68277 0.854492 6.73145 0.830994C6.82559 0.780334 6.91928 0.73349 7.01694 0.682831C7.02075 0.682831 7.02075 0.682831 7.02411 0.679321C7.11444 0.635834 7.20859 0.595856 7.30243 0.552826C7.30624 0.552826 7.30624 0.549011 7.30975 0.549011C7.31311 0.549011 7.3241 0.545502 7.33142 0.541687C7.34592 0.534515 7.36041 0.531006 7.37491 0.523834C7.42892 0.502014 7.48691 0.476837 7.54489 0.454865C7.56961 0.447235 7.59372 0.437622 7.61691 0.425873C7.62424 0.425873 7.6279 0.422058 7.63141 0.422058C7.65857 0.410919 7.68634 0.401154 7.71457 0.393066C7.73273 0.3862 7.74905 0.382385 7.76523 0.375214C7.81833 0.353851 7.87265 0.335693 7.92789 0.321045L7.96039 0.310059C8.05423 0.281372 8.15173 0.25238 8.24588 0.226898C8.26389 0.223389 8.28204 0.219727 8.29654 0.216217C8.39038 0.190735 8.48071 0.169373 8.57486 0.151062C8.59286 0.147552 8.60721 0.143738 8.62552 0.140381C8.71204 0.12207 8.80618 0.105896 8.89651 0.0897217H8.90384C8.91101 0.0897217 8.91452 0.0862122 8.92169 0.0862122C8.93268 0.0868225 8.94366 0.0856018 8.95419 0.0823975C8.99417 0.0752258 9.03384 0.0717163 9.07733 0.0645447C9.10953 0.0578308 9.14203 0.052948 9.17484 0.0500488H9.18216C9.19864 0.0459289 9.21542 0.0436402 9.23251 0.0427246C9.24854 0.0436402 9.26456 0.042572 9.28043 0.0396729Z" fill="#23B972"/>
<path d="M6.71857 2.55173C6.31757 2.85645 5.9599 3.21426 5.65518 3.61511L4.64246 2.56622C4.66061 2.54074 4.67862 2.51556 4.70059 2.48993C4.79138 2.38098 4.88553 2.27585 4.97998 2.17407C5.07443 2.07245 5.16507 1.98547 5.26303 1.89102L5.27417 1.88034H5.27753C5.27753 1.87317 5.27753 1.87317 5.28134 1.87317C5.30286 1.84845 5.32712 1.82648 5.35382 1.80756C5.37549 1.78589 5.40097 1.76407 5.42279 1.74591C5.42996 1.73859 5.43378 1.73141 5.44095 1.72791C5.47574 1.6922 5.51343 1.65939 5.55341 1.62964L5.62619 1.56799C5.63977 1.55716 5.65442 1.54739 5.66968 1.539L6.71857 2.55173Z" fill="#EBECED"/>
<path d="M5.65518 3.61508C5.09045 4.36261 4.72897 5.24365 4.60614 6.17245H3.14343C3.25162 5.1048 3.61234 4.07834 4.19583 3.17792H4.19965C4.27579 3.05783 4.3559 2.94171 4.44104 2.82544C4.5062 2.73862 4.57166 2.65134 4.64413 2.56787L5.65518 3.61508Z" fill="#23B972"/>
<path d="M4.5555 6.89651C4.55565 7.13943 4.57259 7.3819 4.60616 7.62238H3.14345C3.09004 7.14005 3.09004 6.65314 3.14345 6.17065H4.60616C4.57259 6.41113 4.55565 6.65375 4.5555 6.89651Z" fill="#EBECED"/>
<path d="M5.67349 10.1959L4.63895 11.2303C3.79971 10.199 3.28 8.94501 3.14343 7.62238H4.60614C4.72989 8.55896 5.09808 9.44656 5.67349 10.1959Z" fill="#23B972"/>
<path d="M6.70074 11.2231L5.6662 12.2575C5.28839 11.9525 4.944 11.6081 4.63898 11.2303L5.67352 10.1959C5.96588 10.5849 6.31165 10.9306 6.70074 11.2231Z" fill="#EBECED"/>
<path d="M9.27579 12.2903V13.7531C7.95346 13.6159 6.69965 13.0962 5.66785 12.2575L6.70239 11.2231C7.45084 11.7999 8.33875 12.1681 9.27579 12.2903Z" fill="#23B972"/>
<path d="M10.7242 12.2903V13.7531C10.2417 13.8065 9.75479 13.8065 9.27246 13.7531V12.2903C9.49615 12.3221 9.72168 12.339 9.94766 12.341H10C10.2423 12.3407 10.4842 12.3238 10.7242 12.2903Z" fill="#EBECED"/>
<path d="M14.3338 12.2575C13.302 13.0971 12.0474 13.6169 10.7242 13.7531V12.2903C11.6611 12.1667 12.5488 11.7981 13.2976 11.2213L14.3338 12.2575Z" fill="#23B972"/>
<path d="M15.361 11.2303C15.056 11.6081 14.7116 11.9525 14.3338 12.2575L13.2993 11.2231C13.6874 10.9297 14.0332 10.5841 14.3265 10.1959L15.361 11.2303Z" fill="#EBECED"/>
<path d="M16.8565 7.62238C16.853 7.6442 16.853 7.66617 16.8494 7.68799C16.7027 8.98697 16.1862 10.2165 15.361 11.2303L14.3265 10.1959C14.9033 9.44717 15.2719 8.55942 15.3955 7.62238H16.8565Z" fill="#23B972"/>
<path d="M16.8965 6.89651C16.8962 7.13898 16.8828 7.38129 16.8565 7.62238H15.3938C15.4614 7.14081 15.4614 6.65222 15.3938 6.17065H16.8565C16.8596 6.17752 16.8609 6.185 16.8603 6.19247C16.871 6.2796 16.8782 6.36658 16.882 6.45721C16.8927 6.60248 16.8965 6.74759 16.8965 6.89651Z" fill="#EBECED"/>
<path d="M15.3575 2.56622V2.57004L14.3265 3.59726C14.0354 3.20847 13.6908 2.86255 13.3031 2.57004L14.3303 1.539C14.3378 1.54175 14.3442 1.54678 14.3486 1.5535H14.3521C14.356 1.5535 14.356 1.5535 14.3593 1.56067L14.3631 1.56448C14.3666 1.56448 14.3738 1.57166 14.3776 1.57516C14.3883 1.58249 14.3993 1.59348 14.41 1.60065L14.4283 1.61896C14.4387 1.62521 14.4483 1.63254 14.4573 1.64062C14.469 1.64932 14.48 1.65894 14.4901 1.66962C14.4989 1.67343 14.5064 1.67984 14.5117 1.68793C14.5426 1.71127 14.5717 1.73676 14.599 1.76407C14.6245 1.78925 14.6497 1.81137 14.6787 1.83655C14.6825 1.84036 14.6859 1.84036 14.6897 1.84753L14.6935 1.85104C14.697 1.85104 14.697 1.85104 14.697 1.85486C14.697 1.85867 14.7007 1.85486 14.7007 1.85822L14.7042 1.86203C14.708 1.86203 14.708 1.86584 14.7113 1.86935C14.7194 1.87439 14.7267 1.88049 14.7332 1.88751C14.7547 1.90582 14.7753 1.9252 14.7948 1.9455C14.8099 1.95694 14.8235 1.97037 14.8349 1.98547C14.8349 1.98547 14.8386 1.98547 14.8386 1.98898C14.8523 1.99936 14.8645 2.01172 14.8749 2.02545C14.9037 2.05063 14.9327 2.08344 14.9617 2.11243L14.9765 2.12692C15.0017 2.1524 15.0273 2.1814 15.049 2.20688C15.0562 2.21039 15.06 2.2142 15.06 2.21786L15.0997 2.26135C15.1145 2.27936 15.129 2.29416 15.1435 2.31201C15.1548 2.31995 15.1645 2.32971 15.1725 2.341C15.187 2.35931 15.2053 2.37762 15.2198 2.39548L15.2304 2.40662C15.2378 2.41409 15.2439 2.42264 15.2486 2.4321C15.2599 2.43896 15.2687 2.44904 15.2742 2.46109C15.2845 2.46887 15.293 2.47879 15.2994 2.48993C15.3127 2.50351 15.3249 2.51801 15.3359 2.53342L15.3575 2.56622Z" fill="#EBECED"/>
<path d="M10.7242 0.0506592V1.49628C10.4969 1.46286 10.2674 1.44608 10.0376 1.44592H10.0014C9.75909 1.44608 9.51724 1.46286 9.27722 1.49628V0.0396729H9.28073C9.37823 0.0289917 9.47589 0.0216675 9.57355 0.0144959H9.57721C9.60117 0.0112915 9.62527 0.0100708 9.64938 0.0106812C9.72171 0.00350952 9.79755 0.00350952 9.87003 0.00350952H9.92038V0H10C10.0869 0 10.1725 0.0106812 10.2603 0.0144959C10.4186 0.0216675 10.5742 0.0323486 10.7242 0.0506592Z" fill="#EBECED"/>
<path d="M16.8566 6.17249H15.3939C15.2703 5.23544 14.9015 4.34769 14.3248 3.59894L15.3559 2.57172C15.3632 2.57172 15.3665 2.57904 15.3704 2.5824L15.3849 2.59689C15.3907 2.60223 15.3955 2.60834 15.3994 2.6152L15.4338 2.65869C15.4659 2.69379 15.4952 2.73148 15.5211 2.77145C15.5245 2.77863 15.5318 2.7858 15.5356 2.79312C15.5393 2.80029 15.5463 2.8038 15.55 2.81097L15.5718 2.84546C15.5901 2.87109 15.6063 2.89276 15.6263 2.91824C15.6479 2.95074 15.6697 2.98004 15.6914 3.01239C15.7131 3.04489 15.7424 3.08868 15.7675 3.12515C15.7787 3.14697 15.7932 3.16483 15.8042 3.18314C15.8062 3.18497 15.8074 3.18756 15.8077 3.19031C15.8097 3.19214 15.811 3.19473 15.8113 3.19763L15.8187 3.2048C15.819 3.20755 15.8202 3.21014 15.8222 3.21213C15.8766 3.29926 15.9311 3.38654 15.9818 3.47717C16.0218 3.54248 16.0579 3.61145 16.0945 3.68042L16.1269 3.74588C16.1269 3.74924 16.1307 3.74924 16.1307 3.75305C16.1409 3.77548 16.1524 3.7973 16.1652 3.81821C16.1728 3.83972 16.1824 3.86047 16.1942 3.88C16.1942 3.88718 16.198 3.88718 16.2018 3.89099C16.2163 3.93066 16.2342 3.97064 16.2525 4.01062C16.2586 4.01962 16.2635 4.02939 16.267 4.03961C16.3576 4.23584 16.4376 4.43893 16.5084 4.64584H16.5172C16.5317 4.68582 16.5424 4.72214 16.5573 4.76212C16.5677 4.78531 16.5749 4.80972 16.579 4.8349C16.5825 4.83826 16.5825 4.83826 16.5825 4.84207C16.5825 4.84589 16.5862 4.84558 16.5862 4.84924C16.6114 4.92554 16.6335 5.00168 16.6513 5.08133C16.677 5.16479 16.6986 5.25208 16.7169 5.33936C16.7353 5.42648 16.7531 5.50964 16.7714 5.59692C16.774 5.59998 16.7754 5.60394 16.7749 5.60791C16.7786 5.62592 16.7821 5.64758 16.7859 5.66971C16.7925 5.69717 16.7972 5.72495 16.8004 5.75317C16.8038 5.77103 16.8076 5.79269 16.8111 5.811V5.82214C16.8256 5.91995 16.8404 6.02173 16.8511 6.11969C16.8547 6.13708 16.8566 6.15463 16.8566 6.17249Z" fill="#23B972"/>
<path d="M2.41381 18.9655C2.22338 18.9655 2.06896 18.8112 2.06896 18.6208V17.3842L1.96795 17.4852C1.8326 17.6158 1.61761 17.614 1.48455 17.4809C1.35149 17.348 1.34966 17.1329 1.48043 16.9975L2.16998 16.308C2.2687 16.2094 2.41686 16.1798 2.5458 16.2332C2.67458 16.2866 2.75866 16.4124 2.75866 16.5517V18.6208C2.75866 18.8112 2.60424 18.9655 2.41381 18.9655Z" fill="#928170"/>
<path d="M4.48276 18.9655C3.91147 18.9655 3.44836 18.5023 3.44836 17.9311V17.2414C3.44836 16.6701 3.91147 16.207 4.48276 16.207C5.05405 16.207 5.5173 16.6701 5.5173 17.2414V17.9311C5.5173 18.5023 5.05405 18.9655 4.48276 18.9655ZM4.48276 16.8965C4.29233 16.8965 4.13791 17.0509 4.13791 17.2414V17.9311C4.13791 18.1215 4.29233 18.2759 4.48276 18.2759C4.67319 18.2759 4.82761 18.1215 4.82761 17.9311V17.2414C4.82761 17.0509 4.67319 16.8965 4.48276 16.8965Z" fill="#928170"/>
<path d="M15.5173 18.9655C14.946 18.9655 14.4827 18.5023 14.4827 17.9311V17.2414C14.4827 16.6701 14.946 16.207 15.5173 16.207C16.0886 16.207 16.5517 16.6701 16.5517 17.2414V17.9311C16.5517 18.5023 16.0886 18.9655 15.5173 18.9655ZM15.5173 16.8965C15.3268 16.8965 15.1724 17.0509 15.1724 17.2414V17.9311C15.1724 18.1215 15.3268 18.2759 15.5173 18.2759C15.7077 18.2759 15.8621 18.1215 15.8621 17.9311V17.2414C15.8621 17.0509 15.7077 16.8965 15.5173 16.8965Z" fill="#928170"/>
<path d="M7.24136 18.2759C6.67007 18.2759 6.20697 17.8127 6.20697 17.2414V16.5517C6.20697 15.9804 6.67007 15.5173 7.24136 15.5173C7.81265 15.5173 8.27591 15.9804 8.27591 16.5517V17.2414C8.27591 17.8127 7.81265 18.2759 7.24136 18.2759ZM7.24136 16.207C7.05093 16.207 6.89651 16.3612 6.89651 16.5517V17.2414C6.89651 17.4318 7.05093 17.5862 7.24136 17.5862C7.43179 17.5862 7.58621 17.4318 7.58621 17.2414V16.5517C7.58621 16.3612 7.43179 16.207 7.24136 16.207Z" fill="#928170"/>
<path d="M12.7587 18.2759C12.1874 18.2759 11.7241 17.8127 11.7241 17.2414V16.5517C11.7241 15.9804 12.1874 15.5173 12.7587 15.5173C13.33 15.5173 13.7931 15.9804 13.7931 16.5517V17.2414C13.7931 17.8127 13.33 18.2759 12.7587 18.2759ZM12.7587 16.207C12.5682 16.207 12.4138 16.3612 12.4138 16.5517V17.2414C12.4138 17.4318 12.5682 17.5862 12.7587 17.5862C12.9491 17.5862 13.1035 17.4318 13.1035 17.2414V16.5517C13.1035 16.3612 12.9491 16.207 12.7587 16.207Z" fill="#928170"/>
<path d="M10 17.9311C9.42871 17.9311 8.96545 17.468 8.96545 16.8965V16.207C8.96545 15.6355 9.42871 15.1724 10 15.1724C10.5713 15.1724 11.0345 15.6355 11.0345 16.207V16.8965C11.0345 17.468 10.5713 17.9311 10 17.9311ZM10 15.8621C9.80957 15.8621 9.65515 16.0164 9.65515 16.207V16.8965C9.65515 17.0869 9.80957 17.2414 10 17.2414C10.1904 17.2414 10.3448 17.0869 10.3448 16.8965V16.207C10.3448 16.0164 10.1904 15.8621 10 15.8621Z" fill="#928170"/>
<path d="M18.2759 18.2759C18.2759 18.4663 18.1215 18.6207 17.9311 18.6207C17.7407 18.6207 17.5862 18.4663 17.5862 18.2759C17.5862 18.0854 17.7407 17.931 17.9311 17.931C18.1215 17.931 18.2759 18.0854 18.2759 18.2759Z" fill="#928170"/>
<path d="M17.9311 17.2414C17.7407 17.2414 17.5862 17.0869 17.5862 16.8965V16.207C17.5862 16.0164 17.7407 15.8621 17.9311 15.8621C18.1215 15.8621 18.2759 16.0164 18.2759 16.207V16.8965C18.2759 17.0869 18.1215 17.2414 17.9311 17.2414Z" fill="#928170"/>
<path d="M16.5517 12.7587C16.4191 12.7587 16.2982 12.6827 16.2408 12.5632C16.1833 12.4437 16.1995 12.3018 16.2823 12.1984L17.6617 10.4741C17.7386 10.378 17.8612 10.3301 17.9831 10.3487C18.1048 10.3673 18.2075 10.4494 18.2522 10.5641C18.2971 10.679 18.2773 10.809 18.2004 10.9052L16.821 12.6293C16.7555 12.7111 16.6565 12.7587 16.5517 12.7587Z" fill="#F4CD1E"/>
<path d="M17.2551 13.7665C17.0863 13.7663 16.9424 13.6438 16.9153 13.4772C16.8881 13.3104 16.9858 13.1487 17.1458 13.0948L18.1824 12.75C18.2994 12.711 18.4283 12.7374 18.5207 12.8192C18.613 12.9012 18.6546 13.026 18.6298 13.1468C18.605 13.2677 18.5178 13.3663 18.4007 13.4052L17.3642 13.75C17.3289 13.7613 17.2922 13.767 17.2551 13.7665Z" fill="#F4CD1E"/>
<path d="M3.43629 12.73C3.33147 12.7301 3.23244 12.6825 3.16698 12.6007L1.78484 10.8731C1.7058 10.7771 1.68443 10.6461 1.72914 10.53C1.77385 10.414 1.87746 10.331 2.00044 10.3127C2.12343 10.2945 2.24672 10.3439 2.32317 10.4421L3.70515 12.1697C3.78801 12.2731 3.80418 12.4149 3.74681 12.5343C3.68959 12.6538 3.56874 12.73 3.43629 12.73Z" fill="#F4CD1E"/>
<path d="M2.7449 13.7665C2.70783 13.7665 2.67105 13.7604 2.6358 13.7486L1.59927 13.4038C1.48224 13.3649 1.39496 13.2663 1.37024 13.1454C1.34537 13.0246 1.38702 12.8998 1.47934 12.8178C1.57166 12.736 1.70059 12.7096 1.81763 12.7486L2.85416 13.0934C3.01422 13.1473 3.11188 13.309 3.08472 13.4758C3.05756 13.6424 2.91367 13.7649 2.7449 13.7651V13.7665Z" fill="#F4CD1E"/>
</g>
<defs>
<clipPath id="clip0_166_2131">
<rect width="20" height="20" fill="white"/>
</clipPath>
</defs>
</svg>
