<svg width="20" height="20" viewBox="0 0 20 20" fill="none" xmlns="http://www.w3.org/2000/svg">
<g clip-path="url(#clip0_166_2193)">
<path d="M5.17242 8.62073L5.86212 15.8621L10 18.6207L15.8621 13.1035L14.4827 8.96542L5.17242 8.62073Z" fill="#EBECED"/>
<path d="M20 12.0104V19.3103C19.9989 19.6907 19.6907 19.999 19.3103 20H0.689698C0.309297 19.999 0.0010693 19.6907 1.18e-06 19.3103V12.0104C-0.000761757 11.4254 0.368501 10.9038 0.920716 10.7103L4.48273 9.45178L6.0173 11.1035C6.58966 15.0827 8.62762 16.6173 9.54834 17.4173C9.5842 17.4491 9.62356 17.4768 9.66553 17.5C9.87396 17.6139 10.126 17.6139 10.3345 17.5C10.3764 17.4768 10.4158 17.4491 10.4517 17.4173C11.3724 16.6173 13.4103 15.0827 13.9827 11.1035L15.5173 9.45178L19.0793 10.7103C19.6315 10.9038 20.0008 11.4254 20 12.0104Z" fill="#717275"/>
<path d="M13.1035 5.76202V8.09616L11.0345 8.96545C11.0447 8.76404 10.8909 8.59177 10.6897 8.57895H9.31027C9.10901 8.59177 8.9552 8.76404 8.96542 8.96545L6.89648 8.09616V5.76202H13.1035Z" fill="#F5A585"/>
<path d="M14.8276 6.10352e-05V2.069C14.8276 4.73517 12.6662 6.89657 10 6.89657C7.33383 6.89657 5.17242 4.73517 5.17242 2.069V6.10352e-05H14.8276Z" fill="#FEDEBB"/>
<path d="M8.96547 10L5.37523 11.3448C5.15123 11.4055 4.91182 11.3529 4.73391 11.2039C4.55614 11.0549 4.4623 10.8284 4.48275 10.5972V8.02339C4.4623 7.79237 4.55614 7.56578 4.73391 7.41685C4.91182 7.26793 5.15123 7.21529 5.37523 7.27586L8.96547 8.62077V10Z" fill="#ED634C"/>
<path d="M8.96542 9.65515H7.58618C7.39575 9.65515 7.24133 9.50073 7.24133 9.3103C7.24133 9.11987 7.39575 8.96545 7.58618 8.96545H8.96542C9.15601 8.96545 9.31027 9.11987 9.31027 9.3103C9.31027 9.50073 9.15601 9.65515 8.96542 9.65515Z" fill="#CD4F38"/>
<path d="M11.0345 10L14.6248 11.3448C14.8488 11.4055 15.0882 11.3529 15.2661 11.2039C15.4439 11.0549 15.5377 10.8284 15.5173 10.5972V8.02339C15.5377 7.79237 15.4439 7.56578 15.2661 7.41685C15.0882 7.26793 14.8488 7.21529 14.6248 7.27586L11.0345 8.62077V10Z" fill="#ED634C"/>
<path d="M12.4138 9.65515H11.0345C10.8441 9.65515 10.6897 9.50073 10.6897 9.3103C10.6897 9.11987 10.8441 8.96545 11.0345 8.96545H12.4138C12.6042 8.96545 12.7586 9.11987 12.7586 9.3103C12.7586 9.50073 12.6042 9.65515 12.4138 9.65515Z" fill="#CD4F38"/>
<path d="M10.3448 17.5862V20H9.6551V17.5862C9.65494 17.5572 9.65845 17.5282 9.66547 17.5C9.87391 17.6138 10.126 17.6138 10.3344 17.5C10.3414 17.5282 10.3449 17.5572 10.3448 17.5862Z" fill="#445C71"/>
<path d="M10.3448 11.7241C10.3448 11.9145 10.1904 12.0689 9.99994 12.0689C9.80951 12.0689 9.65509 11.9145 9.65509 11.7241C9.65509 11.5336 9.80951 11.3792 9.99994 11.3792C10.1904 11.3792 10.3448 11.5336 10.3448 11.7241Z" fill="#445C71"/>
<path d="M10.3448 13.1035C10.3448 13.2939 10.1904 13.4483 9.99994 13.4483C9.80951 13.4483 9.65509 13.2939 9.65509 13.1035C9.65509 12.913 9.80951 12.7586 9.99994 12.7586C10.1904 12.7586 10.3448 12.913 10.3448 13.1035Z" fill="#445C71"/>
<path d="M10.3448 14.4827C10.3448 14.6732 10.1904 14.8276 9.99994 14.8276C9.80951 14.8276 9.65509 14.6732 9.65509 14.4827C9.65509 14.2923 9.80951 14.1379 9.99994 14.1379C10.1904 14.1379 10.3448 14.2923 10.3448 14.4827Z" fill="#445C71"/>
<path d="M10.3448 15.8621C10.3448 16.0526 10.1904 16.207 9.99994 16.207C9.80951 16.207 9.65509 16.0526 9.65509 15.8621C9.65509 15.6717 9.80951 15.5173 9.99994 15.5173C10.1904 15.5173 10.3448 15.6717 10.3448 15.8621Z" fill="#445C71"/>
<path d="M5.86209 18.6207H2.41376C2.22333 18.6207 2.06891 18.4663 2.06891 18.2759C2.06891 18.0854 2.22333 17.931 2.41376 17.931H5.86209C6.05252 17.931 6.20694 18.0854 6.20694 18.2759C6.20694 18.4663 6.05252 18.6207 5.86209 18.6207Z" fill="#445C71"/>
<path d="M14.7646 18.2759C14.7627 17.5628 14.675 16.8527 14.5032 16.1607C14.4336 15.8659 14.5592 15.5595 14.8155 15.3982L15.9845 14.6214C16.2174 14.4581 16.5195 14.431 16.7777 14.5503C17.0358 14.6696 17.211 14.9171 17.2376 15.2003C17.2603 16.1725 17.188 17.4534 16.7459 18.2759H14.7646Z" fill="#EBECED"/>
<path d="M9.3103 8.27588H10.6897C10.8801 8.27588 11.0345 8.43015 11.0345 8.62073V9.99997C11.0345 10.1904 10.8801 10.3448 10.6897 10.3448H9.3103C9.11987 10.3448 8.96545 10.1904 8.96545 9.99997V8.62073C8.96545 8.43015 9.11987 8.27588 9.3103 8.27588Z" fill="#CD4F38"/>
<path d="M17.5862 18.6207H14.1379C13.9474 18.6207 13.793 18.4663 13.793 18.2759C13.793 18.0854 13.9474 17.931 14.1379 17.931H17.5862C17.7766 17.931 17.9311 18.0854 17.9311 18.2759C17.9311 18.4663 17.7766 18.6207 17.5862 18.6207Z" fill="#445C71"/>
</g>
<defs>
<clipPath id="clip0_166_2193">
<rect width="20" height="20" fill="white"/>
</clipPath>
</defs>
</svg>
