<svg width="20" height="20" viewBox="0 0 20 20" fill="none" xmlns="http://www.w3.org/2000/svg">
<path d="M4.13391 3.10352H4.47876C4.66919 3.10352 4.82361 3.25793 4.82361 3.44836V4.82761C4.82361 5.01804 4.66919 5.17245 4.47876 5.17245H4.13391C3.94348 5.17245 3.78906 5.01804 3.78906 4.82761V3.44836C3.78906 3.25793 3.94348 3.10352 4.13391 3.10352Z" fill="#717275"/>
<path d="M4.13391 5.86212H4.47876C4.66919 5.86212 4.82361 6.01639 4.82361 6.20697V7.58621C4.82361 7.77664 4.66919 7.93106 4.47876 7.93106H4.13391C3.94348 7.93106 3.78906 7.77664 3.78906 7.58621V6.20697C3.78906 6.01639 3.94348 5.86212 4.13391 5.86212Z" fill="#717275"/>
<path d="M5.858 0H14.8236C15.5853 0 16.2029 0.617523 16.2029 1.37924V18.6208C16.2029 19.3825 15.5853 20 14.8236 20H5.858C5.09628 20 4.47876 19.3825 4.47876 18.6208V1.37924C4.47876 0.617523 5.09628 0 5.858 0Z" fill="#717275"/>
<path d="M4.47876 2.75861H16.2029V17.2413H4.47876V2.75861Z" fill="#A0C7E7"/>
<path d="M16.2029 2.75861V8.36545C10.3339 7.29657 6.5683 9.54129 4.47876 11.5344V2.75861H16.2029Z" fill="#BDDCF3"/>
<path d="M10.6856 1.37924C10.6856 1.56982 10.5312 1.72409 10.3407 1.72409C10.1503 1.72409 9.99603 1.56982 9.99603 1.37924C9.99603 1.18881 10.1503 1.03455 10.3407 1.03455C10.5312 1.03455 10.6856 1.18881 10.6856 1.37924Z" fill="#445C71"/>
<path d="M11.7201 18.6207C11.7201 19.3824 11.1026 20 10.3407 20C9.57901 20 8.96149 19.3824 8.96149 18.6207C8.96149 17.8589 9.57901 17.2413 10.3407 17.2413C11.1026 17.2413 11.7201 17.8589 11.7201 18.6207Z" fill="#445C71"/>
<path d="M12.4098 12.0689V15.1724C12.4095 15.2649 12.3907 15.3563 12.3546 15.4414L8.51669 10H8.27179C8.27301 9.6196 8.58109 9.31152 8.96149 9.3103H10.3407L12.4098 12.0689Z" fill="#ED634C"/>
<path d="M12.4098 10V12.0689L10.3407 9.3103H11.7201C12.1005 9.31152 12.4086 9.6196 12.4098 10Z" fill="#CD4F38"/>
<path d="M8.27177 15.1724V10.0107L7.45939 10.1579C7.08464 10.2257 6.83576 10.5846 6.90351 10.9593L7.68049 15.2483C7.74473 15.6036 8.05418 15.862 8.4152 15.8621H8.96147C8.58061 15.8621 8.27177 15.5533 8.27177 15.1724Z" fill="#C9CED1"/>
<path d="M12.4098 15.1724V10.0107L13.2222 10.1579C13.5969 10.2257 13.8458 10.5846 13.778 10.9593L13.0011 15.2483C12.9367 15.6036 12.6274 15.862 12.2662 15.8621H11.7201C12.101 15.8621 12.4098 15.5533 12.4098 15.1724Z" fill="#C9CED1"/>
<path d="M9.30634 8.27591C9.12995 8.27637 8.98178 8.14377 8.96256 7.96844C8.94348 7.79327 9.0596 7.63168 9.23187 7.59415C9.70185 7.47223 10.0212 7.03659 9.99603 6.55167C9.99603 6.36124 10.1503 6.20697 10.3407 6.20697C10.5312 6.20697 10.6856 6.36124 10.6856 6.55167C10.6606 7.03766 10.9814 7.47406 11.4528 7.59476C11.573 7.62207 11.6696 7.71133 11.7062 7.82913C11.7427 7.94678 11.7137 8.0751 11.6299 8.16559C11.5463 8.25623 11.4207 8.29514 11.3005 8.26797C10.9184 8.17123 10.5801 7.9483 10.3407 7.63519C10.1013 7.9483 9.76319 8.17123 9.38111 8.26797C9.35654 8.27301 9.33151 8.27576 9.30634 8.27591Z" fill="#445C71"/>
<path d="M10.3407 6.39481C10.3407 6.39481 10.3407 6.89651 11.0304 6.89651C11.7201 6.89651 11.7201 6.39481 11.7201 6.1441C11.7201 5.39169 10.3407 5.14099 10.3407 4.13788C10.3407 5.14099 8.96149 5.39169 8.96149 6.1441C8.96149 6.39481 8.96149 6.89651 9.65118 6.89651C10.3407 6.89651 10.3407 6.39481 10.3407 6.39481Z" fill="#445C71"/>
<path d="M10.3407 15.8622H8.96149C8.58109 15.8609 8.27301 15.5529 8.27179 15.1725V12.4138L10.3407 15.8622Z" fill="#ED634C"/>
<path d="M12.3546 15.4414C12.2456 15.6955 11.9965 15.8606 11.7201 15.8621H10.3407L8.27179 12.4138V10H8.51669L12.3546 15.4414Z" fill="#CD4F38"/>
<path d="M12.4099 15.5172L12.3546 15.4414L12.4099 15.5172Z" fill="#ED634C"/>
</svg>
