<svg width="16" height="16" viewBox="0 0 16 16" fill="none" xmlns="http://www.w3.org/2000/svg">
<path d="M4.26392 1C4.16828 0.999601 4.07636 1.0371 4.00819 1.1042C3.94003 1.1713 3.90114 1.26258 3.9 1.35824V2.44985H1.72359C1.62824 2.45014 1.53387 2.46931 1.44589 2.50605C1.35791 2.54278 1.27804 2.59634 1.21084 2.66393C1.14365 2.73151 1.09044 2.81177 1.05426 2.89991C1.01808 2.98805 0.999648 3.08244 1.00001 3.1777V4.47168C1.00001 5.85926 1.82896 7.11514 3.10562 7.66171L3.92124 8.01142C4.05641 9.27315 4.80622 10.4015 5.93482 11.0173L7.52642 11.888V14.0486H6.07783C5.98264 14.0482 5.88829 14.0666 5.80019 14.1027C5.71209 14.1387 5.63195 14.1918 5.56436 14.2589C5.49678 14.3259 5.44306 14.4057 5.40628 14.4935C5.3695 14.5813 5.35037 14.6756 5.35 14.7708C5.34944 14.8666 5.36787 14.9615 5.40423 15.0501C5.4406 15.1387 5.49417 15.2195 5.56185 15.2873C5.62953 15.3551 5.70998 15.4088 5.79854 15.4453C5.88711 15.4818 5.98204 15.5004 6.07783 15.5H10.4278C10.5231 15.4996 10.6175 15.4805 10.7054 15.4436C10.7933 15.4068 10.8731 15.353 10.9401 15.2853C11.0072 15.2175 11.0603 15.1372 11.0963 15.0489C11.1323 14.9607 11.1506 14.8661 11.15 14.7708C11.1493 14.5795 11.0729 14.3961 10.9376 14.2609C10.8024 14.1256 10.6191 14.0493 10.4278 14.0486H8.97641V11.881L10.5878 10.9635C11.6857 10.343 12.415 9.24378 12.5688 8.01142L13.3916 7.65753C14.6666 7.11112 15.5 5.85592 15.5 4.46884V3.17486C15.5004 3.07918 15.4818 2.98436 15.4454 2.89589C15.4089 2.80743 15.3553 2.72706 15.2877 2.65941C15.22 2.59176 15.1396 2.53813 15.0511 2.5017C14.9627 2.46527 14.8678 2.44662 14.7722 2.44701H12.6V1.35824C12.5989 1.26258 12.56 1.1713 12.4918 1.1042C12.4236 1.0371 12.3317 0.999601 12.2361 1H4.26392ZM12.6 3.89686H14.05V4.46884C14.05 5.28008 13.5695 6.00701 12.8237 6.3266L12.6 6.42276L12.6 3.89686ZM2.44576 3.8997H3.9V6.4241L3.67911 6.32927C2.93246 6.00963 2.44576 5.2832 2.44576 4.47168V3.8997Z" fill="white"/>
</svg>
