<svg width="14" height="20" viewBox="0 0 14 20" fill="none" xmlns="http://www.w3.org/2000/svg">
<path d="M7 0C7.13942 0 7.27012 0.021286 7.39211 0.0638561C7.5141 0.106428 7.62738 0.178799 7.73194 0.28097L13.5875 6.00255C13.7792 6.18987 13.875 6.42827 13.875 6.71775C13.875 7.00724 13.7792 7.24564 13.5875 7.43295C13.3783 7.63729 13.13 7.73521 12.8424 7.72669C12.5549 7.71818 12.3153 7.62026 12.1236 7.43295L8.04563 3.47382L8.04563 18.9783C8.04563 19.2678 7.94542 19.5104 7.74501 19.7063C7.5446 19.9021 7.29626 20 7 20C6.70374 20 6.4554 19.9021 6.25499 19.7063C6.05458 19.5104 5.95437 19.2678 5.95437 18.9783L5.95437 3.47382L1.90257 7.43295C1.69344 7.63729 1.4451 7.73946 1.15756 7.73946C0.870009 7.73946 0.621673 7.63729 0.412548 7.43295C0.220849 7.22861 0.125 6.98595 0.125 6.70498C0.125 6.42401 0.220849 6.18987 0.412548 6.00255L6.26806 0.28097C6.37262 0.178799 6.4859 0.106428 6.60789 0.0638561C6.72988 0.021286 6.86058 0 7 0Z" fill="white"/>
</svg>
